<svg xmlns="http://www.w3.org/2000/svg" width="19" height="18" viewBox="0 0 19 18" fill="none">
  <mask id="mask0_2823_347" style="mask-type:alpha" maskUnits="userSpaceOnUse" x="0" y="0" width="19" height="18">
    <rect x="0.916016" width="18" height="18" fill="#D9D9D9"/>
  </mask>
  <g mask="url(#mask0_2823_347)">
    <path d="M9.16602 16.5V10.8L5.71602 14.25L4.66602 13.2L8.86602 9L4.66602 4.8L5.71602 3.75L9.16602 7.2V1.5H9.91602L14.191 5.775L10.966 9L14.191 12.225L9.91602 16.5H9.16602ZM10.666 7.2L12.091 5.775L10.666 4.3875V7.2ZM10.666 13.6125L12.091 12.225L10.666 10.8V13.6125ZM4.66602 10.125C4.35352 10.125 4.08789 10.0156 3.86914 9.79687C3.65039 9.57812 3.54102 9.3125 3.54102 9C3.54102 8.6875 3.65039 8.42187 3.86914 8.20312C4.08789 7.98437 4.35352 7.875 4.66602 7.875C4.97852 7.875 5.24414 7.98437 5.46289 8.20312C5.68164 8.42187 5.79102 8.6875 5.79102 9C5.79102 9.3125 5.68164 9.57812 5.46289 9.79687C5.24414 10.0156 4.97852 10.125 4.66602 10.125ZM15.166 10.125C14.8535 10.125 14.5879 10.0156 14.3691 9.79687C14.1504 9.57812 14.041 9.3125 14.041 9C14.041 8.6875 14.1504 8.42187 14.3691 8.20312C14.5879 7.98437 14.8535 7.875 15.166 7.875C15.4785 7.875 15.7441 7.98437 15.9629 8.20312C16.1816 8.42187 16.291 8.6875 16.291 9C16.291 9.3125 16.1816 9.57812 15.9629 9.79687C15.7441 10.0156 15.4785 10.125 15.166 10.125Z" fill="#484848"/>
  </g>
</svg>