<svg width="24" height="25" viewBox="0 0 24 25" fill="none" xmlns="http://www.w3.org/2000/svg">
<mask id="mask0_1158_49698" style="mask-type:alpha" maskUnits="userSpaceOnUse" x="0" y="0" width="24" height="25">
<rect y="0.5" width="24" height="24" fill="#D9D9D9"/>
</mask>
<g mask="url(#mask0_1158_49698)">
<path d="M2 21.5V3.5H12V7.5H22V21.5H2ZM4 19.5H6V17.5H4V19.5ZM4 15.5H6V13.5H4V15.5ZM4 11.5H6V9.5H4V11.5ZM4 7.5H6V5.5H4V7.5ZM8 19.5H10V17.5H8V19.5ZM8 15.5H10V13.5H8V15.5ZM8 11.5H10V9.5H8V11.5ZM8 7.5H10V5.5H8V7.5ZM12 19.5H20V9.5H12V11.5H14V13.5H12V15.5H14V17.5H12V19.5ZM16 13.5V11.5H18V13.5H16ZM16 17.5V15.5H18V17.5H16Z" fill="#808080"/>
</g>
</svg>
