<svg xmlns="http://www.w3.org/2000/svg" width="20" height="20" viewBox="0 0 20 20" fill="none">
  <g clip-path="url(#clip0_241_1261)">
    <path d="M4.12319 14.2659C4.13911 12.566 5.44431 11.1712 7.08174 11.1712H12.8875C14.535 11.1712 15.8462 12.5832 15.8462 14.2974V15.8604C15.8462 16.2921 15.6712 16.6828 15.3884 16.9657C15.1055 17.2486 14.7147 17.4235 14.2831 17.4235H5.68613C4.82286 17.4235 4.12305 16.7237 4.12305 15.8604V14.2974C4.12305 14.2869 4.12309 14.2764 4.12319 14.2659ZM9.98462 10.3896C7.82645 10.3896 6.0769 8.6401 6.0769 6.48193C6.0769 4.32376 7.82645 2.57422 9.98462 2.57422C12.1428 2.57422 13.8923 4.32376 13.8923 6.48193C13.8923 8.6401 12.1428 10.3896 9.98462 10.3896ZM9.98462 8.82656C11.2795 8.82656 12.3292 7.77683 12.3292 6.48193C12.3292 5.18703 11.2795 4.1373 9.98462 4.1373C8.68971 4.1373 7.63999 5.18703 7.63999 6.48193C7.63999 7.77683 8.68971 8.82656 9.98462 8.82656ZM5.68613 15.8604H14.2831V14.2974C14.2831 13.4217 13.6448 12.7343 12.8875 12.7343H7.08174C6.32444 12.7343 5.68613 13.4217 5.68613 14.2974V15.8604Z" fill="#4F4F4F"/>
    <path d="M4.29883 11.9534C4.29883 12.3851 3.94892 12.735 3.51729 12.735H3.12651C2.26325 12.735 1.56343 13.4348 1.56343 14.298V15.8611H3.12664C3.55828 15.8611 3.90818 16.211 3.90818 16.6427C3.90818 17.0743 3.55828 17.4242 3.12664 17.4242H1.56343C0.700161 17.4242 0.0003438 16.7244 0.0003438 15.8611V14.298C0.0003438 12.5715 1.39998 11.1719 3.12651 11.1719H3.51729C3.94892 11.1719 4.29883 11.5218 4.29883 11.9534Z" fill="#4F4F4F"/>
    <path d="M15.7012 11.9534C15.7012 12.3851 16.0511 12.735 16.4827 12.735H16.8735C17.7368 12.735 18.4366 13.4348 18.4366 14.298V15.8611H16.8734C16.4417 15.8611 16.0918 16.211 16.0918 16.6427C16.0918 17.0743 16.4417 17.4242 16.8734 17.4242H18.4366C19.2998 17.4242 19.9997 16.7244 19.9997 15.8611V14.298C19.9997 12.5715 18.6 11.1719 16.8735 11.1719H16.4827C16.0511 11.1719 15.7012 11.5218 15.7012 11.9534Z" fill="#4F4F4F"/>
    <path d="M6.05073 9.50183C6.10335 9.93025 5.79871 10.3202 5.3703 10.3728C5.26124 10.3862 5.15119 10.393 5.04056 10.393C3.42408 10.393 2.14885 8.97604 2.14885 7.26679C2.14885 5.55755 3.42408 4.14062 5.04056 4.14062C5.15119 4.14062 5.26124 4.14737 5.3703 4.16076C5.79871 4.21339 6.10335 4.60334 6.05073 5.03176C5.99811 5.46017 5.60815 5.76481 5.17974 5.71219C5.13386 5.70655 5.08744 5.70371 5.04056 5.70371C4.32621 5.70371 3.71193 6.38624 3.71193 7.26679C3.71193 8.14735 4.32621 8.82988 5.04056 8.82988C5.08744 8.82988 5.13386 8.82704 5.17974 8.8214C5.60815 8.76878 5.99811 9.07342 6.05073 9.50183Z" fill="#4F4F4F"/>
    <path d="M13.9493 9.50183C13.8966 9.93025 14.2013 10.3202 14.6297 10.3728C14.7388 10.3862 14.8488 10.393 14.9594 10.393C16.5759 10.393 17.8512 8.97604 17.8512 7.26679C17.8512 5.55755 16.5759 4.14062 14.9594 4.14062C14.8488 4.14062 14.7388 4.14737 14.6297 4.16076C14.2013 4.21339 13.8966 4.60334 13.9493 5.03176C14.0019 5.46017 14.3918 5.76481 14.8203 5.71219C14.8661 5.70655 14.9126 5.70371 14.9594 5.70371C15.6738 5.70371 16.2881 6.38624 16.2881 7.26679C16.2881 8.14735 15.6738 8.82988 14.9594 8.82988C14.9126 8.82988 14.8661 8.82704 14.8203 8.8214C14.3918 8.76878 14.0019 9.07342 13.9493 9.50183Z" fill="#4F4F4F"/>
  </g>
  <defs>
    <clipPath id="clip0_241_1261">
      <rect width="19.998" height="19.998" fill="white"/>
    </clipPath>
  </defs>
</svg>