<svg width="166" height="26" viewBox="0 0 166 26" fill="none" xmlns="http://www.w3.org/2000/svg">
<path d="M43.8499 4.65623L33.3212 13.6331L27.2369 18.8191C26.6036 19.3648 25.7903 19.6634 24.9531 19.6634H19.596C19.4847 19.6634 19.4331 19.5247 19.5179 19.4534L24.4947 15.208L26.7692 13.2671L34.2074 6.92488C34.2551 6.8826 34.3306 6.93941 34.2975 7.00019L32.7939 9.7062C32.7608 9.76301 32.8324 9.81983 32.884 9.77755L38.1444 5.29177C38.7816 4.75004 39.591 4.45143 40.4282 4.45143H43.7743C43.8843 4.45143 43.932 4.58488 43.8499 4.6549V4.65623ZM34.0339 4.44746H30.693C29.8558 4.44746 29.0411 4.74607 28.4039 5.29177L22.6216 10.2255C22.5686 10.2677 22.4984 10.2109 22.5315 10.1502L24.0351 7.44415C24.0682 7.38733 23.9966 7.33052 23.945 7.3728L16.1597 14.011L13.766 16.0524L9.77869 19.452C9.69391 19.5247 9.74557 19.6634 9.85685 19.6621H14.0031H15.2351C16.0723 19.6621 16.887 19.3635 17.5242 18.8218L23.5833 13.6304L34.1147 4.65358C34.1955 4.58223 34.1478 4.44482 34.0339 4.44482V4.44746ZM24.2974 4.44746H20.9565C20.1193 4.44746 19.3046 4.74607 18.6674 5.29177L12.3565 10.6747C12.3036 10.717 12.2334 10.6602 12.2665 10.5994L13.77 7.89339C13.8031 7.83657 13.7316 7.77976 13.6799 7.82204L5.37011 14.9094L2.97638 16.9508L0.0421826 19.4547C-0.0425979 19.5273 0.00906519 19.6661 0.12034 19.6648L4.26664 19.6423H5.4986C6.33581 19.6423 7.1505 19.3437 7.78768 18.802L12.7937 14.5302L24.3768 4.65623C24.4576 4.58488 24.41 4.44746 24.296 4.44746H24.2974ZM2.00936 15.4274L11.722 7.14422L15.5968 0.175732C15.6391 0.0951329 15.5862 0 15.4961 0H12.2214C11.1272 0 10.1231 0.589295 9.59456 1.54327L1.91928 15.356C1.88616 15.4128 1.96167 15.4697 2.00936 15.4274ZM41.884 8.68484L32.1713 16.968L28.2979 23.9365C28.2555 24.0171 28.3072 24.1122 28.3973 24.1122H31.6719C32.7661 24.1122 33.7703 23.5229 34.2988 22.569L41.9754 8.75487C42.0085 8.69805 41.933 8.64124 41.8853 8.68352L41.884 8.68484ZM160.034 5.86521H159.586C157.643 5.86521 156.078 6.54303 155.055 7.82732H154.637V0.175732C154.637 0.0792774 154.557 0 154.461 0H151.303C151.206 0 151.126 0.0792774 151.126 0.175732V19.3741C151.126 19.4705 151.206 19.5498 151.303 19.5498H154.461C154.557 19.5498 154.637 19.4705 154.637 19.3741V17.7965H155.055C156.071 19.1349 157.596 19.8114 159.586 19.8114H160.034C163.771 19.8114 166 17.4608 166 13.5194V12.1572C166 8.21842 163.769 5.86521 160.034 5.86521ZM162.491 13.5459C162.491 15.7194 161.136 16.9667 158.772 16.9667H158.353C155.991 16.9667 154.635 15.7194 154.635 13.5459V12.1308C154.635 9.94139 155.991 8.68484 158.353 8.68484H158.772C161.137 8.68484 162.491 9.94139 162.491 12.1308V13.5459ZM64.4528 9.00723H55.5999V2.00836C55.5999 1.91191 55.5204 1.83263 55.4237 1.83263H52.1345C52.0378 1.83263 51.9583 1.91191 51.9583 2.00836V19.3741C51.9583 19.4705 52.0378 19.5498 52.1345 19.5498H55.4237C55.5204 19.5498 55.5999 19.4705 55.5999 19.3741V12.0621H64.4528V19.3741C64.4528 19.4705 64.5323 19.5498 64.629 19.5498H67.9182C68.0149 19.5498 68.0944 19.4705 68.0944 19.3741V2.00836C68.0944 1.91191 68.0149 1.83263 67.9182 1.83263H64.629C64.5323 1.83263 64.4528 1.91191 64.4528 2.00836V9.00591V9.00723ZM84.3869 6.34483L76.089 25.7268C76.0611 25.7916 75.9976 25.8339 75.9273 25.8339H72.9958C72.8699 25.8339 72.7838 25.7044 72.8342 25.5894L75.261 19.9343L68.982 6.35012C68.9277 6.23385 69.0138 6.1004 69.1423 6.1004H72.4659C72.5348 6.1004 72.5971 6.14003 72.6262 6.20346L75.0451 11.5084L76.542 14.7918L76.8467 15.4591C76.9103 15.5978 77.109 15.5952 77.1686 15.4551L77.4507 14.7918L79.247 10.5716L81.1056 6.20742C81.1334 6.14268 81.197 6.1004 81.2672 6.1004H84.2252C84.3511 6.1004 84.4372 6.22856 84.3869 6.34483ZM94.0187 5.86521H93.571C91.621 5.86521 90.0565 6.55228 89.0405 7.85375H88.6192V6.27613C88.6192 6.17967 88.5398 6.1004 88.4431 6.1004H85.2863C85.1896 6.1004 85.1101 6.17967 85.1101 6.27613V25.6581C85.1101 25.7546 85.1896 25.8339 85.2863 25.8339H88.4431C88.5398 25.8339 88.6192 25.7546 88.6192 25.6581V17.7951H89.0379C90.0565 19.1323 91.5799 19.8101 93.571 19.8101H94.0187C97.7557 19.8101 99.9851 17.4595 99.9851 13.5181V12.1559C99.9851 8.2171 97.7543 5.86388 94.0187 5.86388V5.86521ZM96.476 13.5459C96.476 15.7194 95.1209 16.9667 92.7576 16.9667H92.339C89.9771 16.9667 88.6206 15.7194 88.6206 13.5459V12.1308C88.6206 9.94139 89.9771 8.68484 92.339 8.68484H92.7576C95.1222 8.68484 96.476 9.94139 96.476 12.1308V13.5459ZM115.893 12.1572C115.893 8.27524 113.165 5.86521 108.772 5.86521H108.324C103.881 5.86521 101.228 8.21842 101.228 12.1572V13.5459C101.228 17.4701 103.881 19.8114 108.324 19.8114H108.772C112.774 19.8114 115.313 18.1056 115.736 15.1288L115.75 15.0284H112.486L112.466 15.0918C112.076 16.4752 110.832 17.1754 108.772 17.1754H108.324C105.922 17.1754 104.64 15.9876 104.607 13.7388H115.893V12.1572ZM104.615 11.3102C104.802 9.48158 106.116 8.47608 108.323 8.47608H108.771C110.927 8.47608 112.317 9.53443 112.505 11.3102H104.615ZM129.595 11.0063V11.8533H126.295V11.3208C126.295 9.65995 125.415 8.81697 123.68 8.81697C121.945 8.81697 120.986 9.65995 120.986 11.3208V19.3754C120.986 19.4718 120.906 19.5511 120.809 19.5511H117.651C117.555 19.5511 117.475 19.4718 117.475 19.3754V6.27613C117.475 6.17967 117.555 6.1004 117.651 6.1004H120.809C120.906 6.1004 120.986 6.17967 120.986 6.27613V7.64498H121.401C122.229 6.4479 123.464 5.86521 125.176 5.86521C128.149 5.86521 129.595 7.54721 129.595 11.0063ZM130.521 19.3741V0.175732C130.521 0.0792774 130.6 0 130.697 0H133.855C133.952 0 134.031 0.0792774 134.031 0.175732V19.3741C134.031 19.4705 133.952 19.5498 133.855 19.5498H130.697C130.6 19.5498 130.521 19.4705 130.521 19.3741ZM142.92 5.86521H142.448C138.277 5.86521 135.981 7.58949 135.981 10.7183V10.8055H139.464V10.7183C139.464 8.74298 141.333 8.44965 142.448 8.44965H142.893C144.871 8.44965 145.875 9.22128 145.875 10.7447V11.5454H141.398C137.559 11.5454 135.613 12.9407 135.613 15.6916C135.613 18.4426 137.406 19.8101 140.531 19.8101C142.773 19.8101 144.276 19.2129 145.402 17.8744H145.877V19.3728C145.877 19.4692 145.956 19.5485 146.053 19.5485H149.236C149.333 19.5485 149.412 19.4692 149.412 19.3728V10.7434C149.412 7.5961 147.106 5.86388 142.921 5.86388L142.92 5.86521ZM145.875 14.1748C145.875 16.9112 142.749 17.1226 141.79 17.1226C140.002 17.1226 139.097 16.5531 139.097 15.43C139.097 14.3069 139.919 13.7375 141.763 13.7375H145.875V14.1735V14.1748Z" fill="#F0F0F0"/>
</svg>
