<svg width="216" height="34" viewBox="0 0 216 34" fill="none" xmlns="http://www.w3.org/2000/svg">
<path id="Vector" d="M57.0576 6.0587L43.3577 17.7394L35.4407 24.4875C34.6168 25.1976 33.5584 25.5862 32.4691 25.5862H25.4984C25.3536 25.5862 25.2864 25.4056 25.3967 25.3128L31.8727 19.7888L34.8323 17.2632L44.5108 9.01069C44.5729 8.95567 44.6711 9.0296 44.628 9.10869L42.6716 12.6298C42.6285 12.7037 42.7216 12.7776 42.7889 12.7226L49.6337 6.88567C50.4628 6.18077 51.5159 5.79222 52.6053 5.79222H56.9594C57.1025 5.79222 57.1645 5.96586 57.0576 6.05698V6.0587ZM44.285 5.78706H39.9379C38.8485 5.78706 37.7884 6.17561 36.9593 6.88567L29.4354 13.3054C29.3664 13.3604 29.275 13.2865 29.3181 13.2074L31.2745 9.68636C31.3176 9.61243 31.2246 9.5385 31.1573 9.59352L21.0271 18.2311L17.9124 20.8874L12.7241 25.3111C12.6138 25.4056 12.681 25.5862 12.8258 25.5844H18.221H19.824C20.9134 25.5844 21.9735 25.1959 22.8026 24.491L30.6868 17.736L44.3902 6.05527C44.4953 5.96242 44.4333 5.78362 44.285 5.78362V5.78706ZM31.6158 5.78706H27.2687C26.1793 5.78706 25.1192 6.17561 24.2901 6.88567L16.0784 13.89C16.0095 13.945 15.9181 13.8711 15.9612 13.792L17.9176 10.2709C17.9607 10.197 17.8676 10.1231 17.8004 10.1781L6.98761 19.4002L3.87288 22.0565L0.0548881 25.3145C-0.0554286 25.4091 0.0117957 25.5896 0.156586 25.5879L5.55177 25.5587H7.15481C8.24419 25.5587 9.30426 25.1701 10.1334 24.4652L16.6472 18.9068L31.7193 6.0587C31.8244 5.96586 31.7623 5.78706 31.6141 5.78706H31.6158ZM2.61458 20.0742L15.2527 9.29609L20.2946 0.228663C20.3497 0.123787 20.2808 0 20.1636 0H15.9026C14.4788 0 13.1722 0.766794 12.4845 2.00811L2.49737 19.9813C2.45428 20.0553 2.55253 20.1292 2.61458 20.0742ZM54.4997 11.3008L41.8615 22.0789L36.8214 31.1463C36.7662 31.2512 36.8335 31.3749 36.9507 31.3749H41.2117C42.6354 31.3749 43.942 30.6081 44.6298 29.3668L54.6186 11.3919C54.6617 11.3179 54.5634 11.244 54.5014 11.299L54.4997 11.3008ZM208.236 7.63183H207.654C205.125 7.63183 203.089 8.51382 201.759 10.1849H201.214V0.228663C201.214 0.103156 201.111 0 200.985 0H196.876C196.75 0 196.646 0.103156 196.646 0.228663V25.2096C196.646 25.3351 196.75 25.4383 196.876 25.4383H200.985C201.111 25.4383 201.214 25.3351 201.214 25.2096V23.1568H201.759C203.081 24.8985 205.065 25.7787 207.654 25.7787H208.236C213.099 25.7787 216 22.7201 216 17.5916V15.819C216 10.6939 213.097 7.63183 208.236 7.63183ZM211.434 17.6259C211.434 20.4541 209.671 22.0771 206.596 22.0771H206.049C202.976 22.0771 201.212 20.4541 201.212 17.6259V15.7846C201.212 12.9358 202.976 11.3008 206.049 11.3008H206.596C209.672 11.3008 211.434 12.9358 211.434 15.7846V17.6259ZM83.8663 11.7203H72.3469V2.61329C72.3469 2.48778 72.2434 2.38463 72.1176 2.38463H67.8377C67.7118 2.38463 67.6084 2.48778 67.6084 2.61329V25.2096C67.6084 25.3351 67.7118 25.4383 67.8377 25.4383H72.1176C72.2434 25.4383 72.3469 25.3351 72.3469 25.2096V15.6952H83.8663V25.2096C83.8663 25.3351 83.9698 25.4383 84.0956 25.4383H88.3755C88.5014 25.4383 88.6048 25.3351 88.6048 25.2096V2.61329C88.6048 2.48778 88.5014 2.38463 88.3755 2.38463H84.0956C83.9698 2.38463 83.8663 2.48778 83.8663 2.61329V11.7185V11.7203ZM109.805 8.25593L99.0073 33.4759C98.9711 33.5601 98.8884 33.6151 98.797 33.6151H94.9825C94.8187 33.6151 94.7067 33.4467 94.7722 33.2971L97.93 25.9386L89.7597 8.26281C89.689 8.11151 89.801 7.93786 89.9682 7.93786H94.293C94.3826 7.93786 94.4637 7.98944 94.5016 8.07197L97.649 14.9748L99.5968 19.2472L99.9933 20.1154C100.076 20.296 100.335 20.2925 100.412 20.1103L100.779 19.2472L103.117 13.7559L105.535 8.07713C105.571 7.99288 105.654 7.93786 105.745 7.93786H109.594C109.758 7.93786 109.87 8.10463 109.805 8.25593ZM122.338 7.63183H121.755C119.218 7.63183 117.182 8.52585 115.86 10.2193H115.312V8.16653C115.312 8.04102 115.208 7.93786 115.083 7.93786H110.975C110.849 7.93786 110.746 8.04102 110.746 8.16653V33.3865C110.746 33.512 110.849 33.6151 110.975 33.6151H115.083C115.208 33.6151 115.312 33.512 115.312 33.3865V23.1551H115.856C117.182 24.895 119.164 25.777 121.755 25.777H122.338C127.2 25.777 130.101 22.7184 130.101 17.5898V15.8173C130.101 10.6921 127.198 7.63012 122.338 7.63012V7.63183ZM125.535 17.6259C125.535 20.4541 123.772 22.0771 120.697 22.0771H120.152C117.079 22.0771 115.314 20.4541 115.314 17.6259V15.7846C115.314 12.9358 117.079 11.3008 120.152 11.3008H120.697C123.773 11.3008 125.535 12.9358 125.535 15.7846V17.6259ZM150.801 15.819C150.801 10.7678 147.25 7.63183 141.534 7.63183H140.952C135.171 7.63183 131.718 10.6939 131.718 15.819V17.6259C131.718 22.7322 135.171 25.7787 140.952 25.7787H141.534C146.742 25.7787 150.046 23.5591 150.596 19.6856L150.615 19.555H146.368L146.342 19.6375C145.833 21.4376 144.215 22.3488 141.534 22.3488H140.952C137.827 22.3488 136.158 20.8032 136.115 17.877H150.801V15.819ZM136.125 14.7169C136.368 12.3375 138.078 11.0291 140.95 11.0291H141.533C144.339 11.0291 146.147 12.4062 146.392 14.7169H136.125ZM168.629 14.3215V15.4236H164.336V14.7307C164.336 12.5696 163.191 11.4727 160.933 11.4727C158.675 11.4727 157.427 12.5696 157.427 14.7307V25.2114C157.427 25.3369 157.324 25.44 157.198 25.44H153.088C152.963 25.44 152.859 25.3369 152.859 25.2114V8.16653C152.859 8.04102 152.963 7.93786 153.088 7.93786H157.198C157.324 7.93786 157.427 8.04102 157.427 8.16653V9.94769H157.968C159.045 8.39003 160.652 7.63183 162.879 7.63183C166.749 7.63183 168.629 9.82047 168.629 14.3215ZM169.834 25.2096V0.228663C169.834 0.103156 169.938 0 170.063 0H174.173C174.299 0 174.402 0.103156 174.402 0.228663V25.2096C174.402 25.3351 174.299 25.4383 174.173 25.4383H170.063C169.938 25.4383 169.834 25.3351 169.834 25.2096ZM185.968 7.63183H185.354C179.926 7.63183 176.939 9.87548 176.939 13.9467V14.0602H181.471V13.9467C181.471 11.3764 183.903 10.9947 185.354 10.9947H185.933C188.507 10.9947 189.814 11.9988 189.814 13.9811V15.023H183.987C178.992 15.023 176.46 16.8385 176.46 20.418C176.46 23.9976 178.794 25.777 182.86 25.777C185.777 25.777 187.733 24.9999 189.198 23.2583H189.815V25.2079C189.815 25.3334 189.919 25.4366 190.045 25.4366H194.187C194.312 25.4366 194.416 25.3334 194.416 25.2079V13.9794C194.416 9.88408 191.415 7.63012 185.97 7.63012L185.968 7.63183ZM189.814 18.4443C189.814 22.0049 185.746 22.28 184.498 22.28C182.171 22.28 180.993 21.539 180.993 20.0776C180.993 18.6162 182.064 17.8752 184.463 17.8752H189.814V18.4426V18.4443Z" fill="#E30051"/>
</svg>
